erDiagram
    MEMBER {
        VARCHAR2(7) ID PK
        NVARCHAR2(14) NAME
        NVARCHAR2(256) IMG
        NVARCHAR2(3) SEX
        NUMBER(3) AGE
        NUMBER(10) POINT
    }
    WORKOUT {
        VARCHAR2(5) ID PK
        NVARCHAR2(14) TITLE
        NVARCHAR2(256) IMG
        NVARCHAR2(512) DESCRIPTION
        NVARCHAR2(512) GUIDE
    }
    WORKOUTRECORD {
        VARCHAR2(7) ID PK
        VARCHAR2(7) MEMBER_ID FK
        DATE WO_DT
        NVARCHAR2(1024) DESCRIPTION
    }
    WORKOUTDETAIL {
        VARCHAR2(7) WORKOUTRECORD_ID PK,FK
        VARCHAR2(5) WORKOUT_ID PK,FK
        NUMBER(10) TARGETREPS
        NUMBER(10) TARGETSETS
        NUMBER(10) COUNT
        NUMBER(10) POINT
    }
    ACHIEVEMENT {
        VARCHAR2(5) ID PK
        NVARCHAR2(14) TITLE
        NVARCHAR2(256) IMG
        NVARCHAR2(1024) DESCRIPTION
    }
    REWARD {
        VARCHAR2(5) ID PK
        NVARCHAR2(14) TITLE
        NVARCHAR2(256) IMG
        NVARCHAR2(1024) DESCRIPTION
        NUMBER(10) REQUIREPOINT
    }
    NAVITEM {
        VARCHAR2(5) ID PK
        NVARCHAR2(14) TITLE
        NVARCHAR2(256) IMG
        NVARCHAR2(1024) DESCRIPTION
    }
    NAVSUBITEM {
        VARCHAR2(5) NAVITEM_ID PK,FK
        VARCHAR2(5) ID PK
        NVARCHAR2(14) TITLE
        NVARCHAR2(256) IMG
        NVARCHAR2(1024) DESCRIPTION
        NVARCHAR2(256) HREF
    }
    CODEDESC {
        VARCHAR2(5) ID PK
        NVARCHAR2(100) NAME
    }
    MINORDESC {
        VARCHAR2(5) CODE_ID PK,FK
        VARCHAR2(5) ID PK
        NVARCHAR2(100) NAME
        NUMBER(4) ORD
    }
    COLUMNDESC {
        VARCHAR2(30) TABLENAME PK
        NUMBER(10) SEQ PK
        NUMBER(2) ORD
        VARCHAR2(20) ID
        NVARCHAR2(50) TITLE
        VARCHAR2(20) TYPE
        NUMBER(10) WIDTH
        VARCHAR2(100) SUMMARY
    }

    WORKOUTRECORD ||--o{ WORKOUTDETAIL : "has"
    MEMBER ||--o{ WORKOUTRECORD : "records"
    WORKOUT ||--o{ WORKOUTDETAIL : "details"
    NAVITEM ||--o{ NAVSUBITEM : "subitems"
    CODEDESC ||--o{ MINORDESC : "minors"
